{"title":"Titoo MBA (2014) 720p UNTOUCHED WEB HD - AVC - AAC - Team IcTv E","uid":11945354,"size":1395424240,"categoryP":"video","categoryS":"other","magnet":"?xt=urn:btih:560deb56567f042516d353c0d55071ace0a35e02&amp;dn=Titoo+MBA+%282014%29+720p+UNTOUCHED+WEB+HD+-+AVC+-+AAC+-+Team+IcTv+E&amp;tr=udp%3A%2F%2Ftracker.openbittorrent.com%3A80&amp;tr=udp%3A%2F%2Fopen.demonii.com%3A1337&amp;tr=udp%3A%2F%2Ftracker.coppersurfer.tk%3A6969&amp;tr=udp%3A%2F%2Fexodus.desync.com%3A6969","seeders":0,"leechers":1,"uploader":"SS132203","files":2,"time":1432046963,"description":"Titoo MBA (2014) 720p UNTOUCHED WEB HD - AVC - AAC - Team IcTv Exclusive\n &lt;a href=&quot;\nhttp://imgsparrow.co/image/47&quot; rel=&quot;nofollow&quot; target=&quot;_NEW&quot;&gt;\nhttp://imgsparrow.co/image/47&lt;/a&gt;\n &lt;a href=&quot;\nhttp://imgsparrow.co/image/T5&quot; rel=&quot;nofollow&quot; target=&quot;_NEW&quot;&gt;\nhttp://imgsparrow.co/image/T5&lt;/a&gt;\n\nInfo : - \n\n[color=red]All Credit Goes To Intellect Clever &amp; IcTv[/color]\n\nMovie Info\nBanner : Beatrix Entertainment\nYear : 2014\nCast : Nishant Dahiya.Pragya Jaiswal.\nVideo: AVC\nAudio : AC3\nGenre : Drama\nSubtitles : None\nResolution : 1080p/720p/480p\nRuntime : 1hr 52min\nSource : Team IcTv\n\nFormat                      : MPEG-4\nFormat profile              : Base Media / Version 2\nCodec ID                    : mp42\nFile size                   : 1.30 GiB\nDuration                    : 1h 52mn\nOverall bit rate mode       : Variable\nOverall bit rate            : 1 656 Kbps\n\nVideo\nID                          : 1\nFormat                      : AVC\nFormat/Info                 : Advanced Video Codec\nFormat profile              : &lt;a class=&quot;__cf_email__&quot; href=&quot;/cdn-cgi/l/email-protection&quot; data-cfemail=&quot;81c9e8e6e9c1cdb2afb0&quot;&gt;[email&amp;#160;protected]&lt;/a&gt;&lt;script data-cfhash='f9e31' type=&quot;text/javascript&quot;&gt;\n/* &lt;![CDATA[ */!function(){try{var t=&quot;currentScript&quot;in document?document.currentScript:function(){for(var t=document.getElementsByTagName(&quot;script&quot;),e=t.length;e--;)if(t[e].getAttribute(&quot;data-cfhash&quot;))return t[e]}();if(t&amp;&amp;t.previousSibling){var e,r,n,i,c=t.previousSibling,a=c.getAttribute(&quot;data-cfemail&quot;);if(a){for(e=&quot;&quot;,r=parseInt(a.substr(0,2),16),n=2;a.length-n;n+=2)i=parseInt(a.substr(n,2),16)^r,e+=String.fromCharCode(i);e=document.createTextNode(e),c.parentNode.replaceChild(e,c)}t.parentNode.removeChild(t);}}catch(u){}}()/* ]]&gt; */&lt;/script&gt;\nFormat settings, CABAC      : Yes\nFormat settings, ReFrames   : 1 frame\nFormat settings, GOP        : M=1, N=60\nCodec ID                    : avc1\nCodec ID/Info               : Advanced Video Coding\nDuration                    : 1h 52mn\nBit rate                    : 1 461 Kbps\nMaximum bit rate            : 8 922 Kbps\nWidth                       : 1 280 pixels\nHeight                      : 720 pixels\nDisplay aspect ratio        : 16:9\nFrame rate mode             : Constant\nFrame rate                  : 25.000 fps\nColor space                 : YUV\nChroma subsampling          : 4:2:0\nBit depth                   : 8 bits\nScan type                   : Progressive\nBits/(Pixel*Frame)          : 0.063\nStream size                 : 1.15 GiB (88%)\n\nAudio\nID                          : 2\nFormat                      : AAC\nFormat/Info                 : Advanced Audio Codec\nFormat profile              : LC\nCodec ID                    : 40\nDuration                    : 1h 52mn\nBit rate mode               : Variable\nBit rate                    : 192 Kbps\nMaximum bit rate            : 201 Kbps\nChannel(s)                  : 2 channels\nChannel positions           : Front: L R\nSampling rate               : 44.1 KHz\nCompression mode            : Lossy\nStream size                 : 154 MiB (12%)\n\nScreens : - \n\nClick Image To View Full Size\n &lt;a href=&quot;\nhttp://imgsparrow.co/image/TA&quot; rel=&quot;nofollow&quot; target=&quot;_NEW&quot;&gt;\nhttp://imgsparrow.co/image/TA&lt;/a&gt; &lt;a href=&quot;\nhttp://imgsparrow.co/image/TQ&quot; rel=&quot;nofollow&quot; target=&quot;_NEW&quot;&gt;\nhttp://imgsparrow.co/image/TQ&lt;/a&gt; &lt;a href=&quot;\nhttp://imgsparrow.co/image/TZ&quot; rel=&quot;nofollow&quot; target=&quot;_NEW&quot;&gt;\nhttp://imgsparrow.co/image/TZ&lt;/a&gt; &lt;a href=&quot;\nhttp://imgsparrow.co/image/Ta&quot; rel=&quot;nofollow&quot; target=&quot;_NEW&quot;&gt;\nhttp://imgsparrow.co/image/Ta&lt;/a&gt; &lt;a href=&quot;\nhttp://imgsparrow.co/image/Tf&quot; rel=&quot;nofollow&quot; target=&quot;_NEW&quot;&gt;\nhttp://imgsparrow.co/image/Tf&lt;/a&gt; &lt;a href=&quot;\nhttp://imgsparrow.co/image/TI&quot; rel=&quot;nofollow&quot; target=&quot;_NEW&quot;&gt;\nhttp://imgsparrow.co/image/TI&lt;/a&gt; &lt;a href=&quot;\nhttp://imgsparrow.co/image/TP&quot; rel=&quot;nofollow&quot; target=&quot;_NEW&quot;&gt;\nhttp://imgsparrow.co/image/TP&lt;/a&gt; &lt;a href=&quot;\nhttp://imgsparrow.co/image/TW&quot; rel=&quot;nofollow&quot; target=&quot;_NEW&quot;&gt;\nhttp://imgsparrow.co/image/TW&lt;/a&gt; &lt;a href=&quot;\nhttp://imgsparrow.co/image/TX&quot; rel=&quot;nofollow&quot; target=&quot;_NEW&quot;&gt;\nhttp://imgsparrow.co/image/TX&lt;/a&gt; &lt;a href=&quot;\nhttp://imgsparrow.co/image/TY&quot; rel=&quot;nofollow&quot; target=&quot;_NEW&quot;&gt;\nhttp://imgsparrow.co/image/TY&lt;/a&gt;\n &lt;a href=&quot;\nhttp://imgsparrow.co/image/N2&quot; rel=&quot;nofollow&quot; target=&quot;_NEW&quot;&gt;\nhttp://imgsparrow.co/image/N2&lt;/a&gt;","torrent":{"xt":"urn:btih:560deb56567f042516d353c0d55071ace0a35e02","amp;dn":"Titoo+MBA+%282014%29+720p+UNTOUCHED+WEB+HD+-+AVC+-+AAC+-+Team+IcTv+E","amp;tr":["udp%3A%2F%2Ftracker.openbittorrent.com%3A80","udp%3A%2F%2Fopen.demonii.com%3A1337","udp%3A%2F%2Ftracker.coppersurfer.tk%3A6969","udp%3A%2F%2Fexodus.desync.com%3A6969"],"infoHash":"560deb56567f042516d353c0d55071ace0a35e02","infoHashBuffer":{"type":"Buffer","data":[86,13,235,86,86,127,4,37,22,211,83,192,213,80,113,172,224,163,94,2]},"announce":[],"urlList":[]}}